<svg width="32" height="33" viewBox="0 0 32 33" fill="none" xmlns="http://www.w3.org/2000/svg">
<g clip-path="url(#clip0_1_69)">
<path d="M30.713 10.4421L26.938 14.2051C26.188 22.9421 18.813 29.7301 10 29.7301C8.188 29.7301 6.688 29.4421 5.55 28.8801C4.638 28.4171 4.263 27.9301 4.163 27.7801C3.995 27.5251 3.953 27.2081 4.047 26.9191C4.142 26.6291 4.364 26.3981 4.65 26.2921C4.675 26.2801 7.625 25.1551 9.538 22.9921C8.351 22.1481 7.309 21.1181 6.45 19.9421C4.738 17.6171 2.925 13.5801 4.013 7.5551C4.082 7.1901 4.346 6.8931 4.7 6.7801C5.055 6.6641 5.446 6.7551 5.713 7.0171C5.75 7.0671 9.913 11.1671 15 12.4921V11.7301C15.01 10.1291 15.656 8.5971 16.795 7.4721C17.934 6.3471 19.474 5.7201 21.075 5.7301C23.192 5.7601 25.137 6.8991 26.2 8.7301H30C30.404 8.7291 30.769 8.9701 30.925 9.3421C31.072 9.7191 30.989 10.1471 30.713 10.4421Z" fill="black"/>
</g>
<defs>
<clipPath id="clip0_1_69">
<rect width="32" height="32" fill="white" transform="translate(0 0.72998)"/>
</clipPath>
</defs>
</svg>
