<svg width="32" height="33" viewBox="0 0 32 33" fill="none" xmlns="http://www.w3.org/2000/svg">
<path d="M29 16.73C28.992 23.305 24.083 28.842 17.556 29.637C17.414 29.654 17.272 29.608 17.166 29.513C17.059 29.417 16.999 29.28 17 29.137V19.73H20C20.277 19.731 20.542 19.616 20.732 19.414C20.921 19.212 21.018 18.94 21 18.664C20.954 18.13 20.504 17.723 19.969 17.73H17V14.73C17 13.625 17.895 12.73 19 12.73H21C21.277 12.731 21.542 12.616 21.732 12.414C21.921 12.212 22.018 11.94 22 11.664C21.954 11.129 21.503 10.721 20.966 10.73H19C16.791 10.73 15 12.521 15 14.73V17.73H12C11.723 17.729 11.458 17.844 11.268 18.046C11.079 18.248 10.982 18.52 11 18.796C11.046 19.331 11.497 19.739 12.034 19.73H15V29.14C15.001 29.283 14.941 29.419 14.835 29.515C14.729 29.61 14.587 29.656 14.445 29.64C7.731 28.822 2.762 23 3.009 16.241C3.259 9.49098 8.726 4.00398 15.481 3.74098C19.015 3.60398 22.452 4.91098 25.002 7.36098C27.552 9.81098 28.996 13.194 29 16.73Z" fill="black"/>
</svg>
