<svg width="32" height="33" viewBox="0 0 32 33" fill="none" xmlns="http://www.w3.org/2000/svg">
<g clip-path="url(#clip0_1_73)">
<path d="M12 16.73C12 14.521 13.791 12.73 16 12.73C18.209 12.73 20 14.521 20 16.73C20 18.939 18.209 20.73 16 20.73C13.791 20.73 12 18.939 12 16.73Z" fill="black"/>
<path d="M21.5 4.22998H10.5C6.634 4.22998 3.5 7.36398 3.5 11.23V22.23C3.5 26.096 6.634 29.23 10.5 29.23H21.5C25.366 29.23 28.5 26.096 28.5 22.23V11.23C28.5 7.36398 25.366 4.22998 21.5 4.22998ZM16 22.73C12.686 22.73 10 20.044 10 16.73C10 13.416 12.686 10.73 16 10.73C19.314 10.73 22 13.416 22 16.73C22 20.044 19.314 22.73 16 22.73ZM22.5 11.73C21.672 11.73 21 11.058 21 10.23C21 9.40198 21.672 8.72998 22.5 8.72998C23.328 8.72998 24 9.40198 24 10.23C24 11.058 23.328 11.73 22.5 11.73Z" fill="black"/>
</g>
<defs>
<clipPath id="clip0_1_73">
<rect width="32" height="32" fill="white" transform="translate(0 0.72998)"/>
</clipPath>
</defs>
</svg>
