<svg width="32" height="33" viewBox="0 0 32 33" fill="none" xmlns="http://www.w3.org/2000/svg">
<path d="M26 4.72998H6C4.895 4.72998 4 5.62498 4 6.72998V24.73C4 25.835 4.895 26.73 6 26.73H8V30.73C8 31.118 8.224 31.471 8.576 31.636C8.927 31.801 9.342 31.747 9.64 31.499L15.363 26.73H20.638C21.106 26.73 21.559 26.566 21.919 26.266L27.28 21.797C27.737 21.418 28.001 20.855 28 20.261V6.72998C28 5.62498 27.105 4.72998 26 4.72998ZM16 17.73C16 18.282 15.552 18.73 15 18.73C14.448 18.73 14 18.282 14 17.73V11.73C14 11.178 14.448 10.73 15 10.73C15.552 10.73 16 11.178 16 11.73V17.73ZM22 17.73C22 18.282 21.552 18.73 21 18.73C20.448 18.73 20 18.282 20 17.73V11.73C20 11.178 20.448 10.73 21 10.73C21.552 10.73 22 11.178 22 11.73V17.73Z" fill="black"/>
</svg>
